<svg width="48" height="48" viewBox="0 0 48 48" fill="none" xmlns="http://www.w3.org/2000/svg">
<path fill-rule="evenodd" clip-rule="evenodd" d="M16.117 16.8085C16.117 12.2198 19.8369 8.5 24.4255 8.5C29.0142 8.5 32.734 12.2198 32.734 16.8085C32.734 21.3972 29.0142 25.117 24.4255 25.117C19.8369 25.117 16.117 21.3972 16.117 16.8085ZM24.4255 11.5C21.4937 11.5 19.117 13.8767 19.117 16.8085C19.117 19.7403 21.4937 22.117 24.4255 22.117C27.3573 22.117 29.734 19.7403 29.734 16.8085C29.734 13.8767 27.3573 11.5 24.4255 11.5ZM13.3617 14.6064C11.2357 14.6064 9.51217 16.3299 9.51217 18.4559C9.51217 20.582 11.2357 22.3055 13.3617 22.3055C14.1901 22.3055 14.8617 22.977 14.8617 23.8055C14.8617 24.6339 14.1901 25.3055 13.3617 25.3055C9.57881 25.3055 6.51217 22.2388 6.51217 18.4559C6.51217 14.673 9.57881 11.6064 13.3617 11.6064C14.1901 11.6064 14.8617 12.278 14.8617 13.1064C14.8617 13.9348 14.1901 14.6064 13.3617 14.6064ZM33.1383 13.1064C33.1383 12.278 33.8099 11.6064 34.6383 11.6064C38.4212 11.6064 41.4878 14.673 41.4878 18.4559C41.4878 22.2388 38.4212 25.3055 34.6383 25.3055C33.8099 25.3055 33.1383 24.6339 33.1383 23.8055C33.1383 22.977 33.8099 22.3055 34.6383 22.3055C36.7644 22.3055 38.4878 20.582 38.4878 18.4559C38.4878 16.3299 36.7644 14.6064 34.6383 14.6064C33.8099 14.6064 33.1383 13.9348 33.1383 13.1064ZM10.5792 27.9922C10.7362 28.8056 10.204 29.5922 9.39055 29.7492C8.34961 29.95 7.32019 30.2306 6.31144 30.5908C5.82483 30.7646 5.5 31.2256 5.5 31.7423V33.5016C5.5 34.1768 6.09805 34.6955 6.76651 34.6L7.29065 34.5252C8.11075 34.408 8.87055 34.9778 8.98771 35.7979C9.10487 36.618 8.53503 37.3778 7.71493 37.495L7.19077 37.5699C4.71502 37.9236 2.5 36.0025 2.5 33.5016V31.7423C2.5 29.9577 3.62184 28.3658 5.30243 27.7656C6.45547 27.3538 7.63223 27.0331 8.82222 26.8035C9.63564 26.6466 10.4223 27.1788 10.5792 27.9922ZM37.4208 27.9922C37.5777 27.1788 38.3644 26.6466 39.1778 26.8035C40.3678 27.0331 41.5445 27.3538 42.6976 27.7656C44.3782 28.3658 45.5 29.9577 45.5 31.7423V33.5016C45.5 36.0025 43.285 37.9236 40.8092 37.5699L40.2851 37.495C39.465 37.3778 38.8951 36.618 39.0123 35.7979C39.1294 34.9778 39.8892 34.408 40.7094 34.5252L41.2335 34.6C41.9019 34.6955 42.5 34.1768 42.5 33.5016V31.7423C42.5 31.2256 42.1752 30.7646 41.6886 30.5908C40.6798 30.2306 39.6504 29.95 38.6095 29.7492C37.796 29.5922 37.2638 28.8056 37.4208 27.9922ZM33.5362 31.8681C27.6446 29.764 21.2064 29.764 15.3149 31.8681C14.5327 32.1475 14.0106 32.8883 14.0106 33.7189V35.958C14.0106 37.0664 14.9923 37.9178 16.0895 37.761L16.7566 37.6657C21.8434 36.939 27.0077 36.939 32.0945 37.6657L32.7616 37.761C33.8588 37.9178 34.8404 37.0664 34.8404 35.958V33.7189C34.8404 32.8883 34.3183 32.1475 33.5362 31.8681ZM14.3059 29.0429C20.8499 26.7058 28.0012 26.7058 34.5452 29.0429C36.5213 29.7487 37.8404 31.6205 37.8404 33.7189V35.958C37.8404 38.892 35.2418 41.1458 32.3373 40.7309L31.6702 40.6356C26.8648 39.9491 21.9862 39.9491 17.1809 40.6356L16.5138 40.7309C13.6093 41.1458 11.0106 38.892 11.0106 35.958V33.7189C11.0106 31.6205 12.3297 29.7487 14.3059 29.0429Z" fill="#666666"/>
<path fill-rule="evenodd" clip-rule="evenodd" d="M16.117 16.8085C16.117 12.2198 19.8369 8.5 24.4255 8.5C29.0142 8.5 32.734 12.2198 32.734 16.8085C32.734 21.3972 29.0142 25.117 24.4255 25.117C19.8369 25.117 16.117 21.3972 16.117 16.8085ZM24.4255 11.5C21.4937 11.5 19.117 13.8767 19.117 16.8085C19.117 19.7403 21.4937 22.117 24.4255 22.117C27.3573 22.117 29.734 19.7403 29.734 16.8085C29.734 13.8767 27.3573 11.5 24.4255 11.5ZM13.3617 14.6064C11.2357 14.6064 9.51217 16.3299 9.51217 18.4559C9.51217 20.582 11.2357 22.3055 13.3617 22.3055C14.1901 22.3055 14.8617 22.977 14.8617 23.8055C14.8617 24.6339 14.1901 25.3055 13.3617 25.3055C9.57881 25.3055 6.51217 22.2388 6.51217 18.4559C6.51217 14.673 9.57881 11.6064 13.3617 11.6064C14.1901 11.6064 14.8617 12.278 14.8617 13.1064C14.8617 13.9348 14.1901 14.6064 13.3617 14.6064ZM33.1383 13.1064C33.1383 12.278 33.8099 11.6064 34.6383 11.6064C38.4212 11.6064 41.4878 14.673 41.4878 18.4559C41.4878 22.2388 38.4212 25.3055 34.6383 25.3055C33.8099 25.3055 33.1383 24.6339 33.1383 23.8055C33.1383 22.977 33.8099 22.3055 34.6383 22.3055C36.7644 22.3055 38.4878 20.582 38.4878 18.4559C38.4878 16.3299 36.7644 14.6064 34.6383 14.6064C33.8099 14.6064 33.1383 13.9348 33.1383 13.1064ZM10.5792 27.9922C10.7362 28.8056 10.204 29.5922 9.39055 29.7492C8.34961 29.95 7.32019 30.2306 6.31144 30.5908C5.82483 30.7646 5.5 31.2256 5.5 31.7423V33.5016C5.5 34.1768 6.09805 34.6955 6.76651 34.6L7.29065 34.5252C8.11075 34.408 8.87055 34.9778 8.98771 35.7979C9.10487 36.618 8.53503 37.3778 7.71493 37.495L7.19077 37.5699C4.71502 37.9236 2.5 36.0025 2.5 33.5016V31.7423C2.5 29.9577 3.62184 28.3658 5.30243 27.7656C6.45547 27.3538 7.63223 27.0331 8.82222 26.8035C9.63564 26.6466 10.4223 27.1788 10.5792 27.9922ZM37.4208 27.9922C37.5777 27.1788 38.3644 26.6466 39.1778 26.8035C40.3678 27.0331 41.5445 27.3538 42.6976 27.7656C44.3782 28.3658 45.5 29.9577 45.5 31.7423V33.5016C45.5 36.0025 43.285 37.9236 40.8092 37.5699L40.2851 37.495C39.465 37.3778 38.8951 36.618 39.0123 35.7979C39.1294 34.9778 39.8892 34.408 40.7094 34.5252L41.2335 34.6C41.9019 34.6955 42.5 34.1768 42.5 33.5016V31.7423C42.5 31.2256 42.1752 30.7646 41.6886 30.5908C40.6798 30.2306 39.6504 29.95 38.6095 29.7492C37.796 29.5922 37.2638 28.8056 37.4208 27.9922ZM33.5362 31.8681C27.6446 29.764 21.2064 29.764 15.3149 31.8681C14.5327 32.1475 14.0106 32.8883 14.0106 33.7189V35.958C14.0106 37.0664 14.9923 37.9178 16.0895 37.761L16.7566 37.6657C21.8434 36.939 27.0077 36.939 32.0945 37.6657L32.7616 37.761C33.8588 37.9178 34.8404 37.0664 34.8404 35.958V33.7189C34.8404 32.8883 34.3183 32.1475 33.5362 31.8681ZM14.3059 29.0429C20.8499 26.7058 28.0012 26.7058 34.5452 29.0429C36.5213 29.7487 37.8404 31.6205 37.8404 33.7189V35.958C37.8404 38.892 35.2418 41.1458 32.3373 40.7309L31.6702 40.6356C26.8648 39.9491 21.9862 39.9491 17.1809 40.6356L16.5138 40.7309C13.6093 41.1458 11.0106 38.892 11.0106 35.958V33.7189C11.0106 31.6205 12.3297 29.7487 14.3059 29.0429Z" fill="#666666"/>
</svg>
