<svg width="24" height="24" viewBox="0 0 24 24" fill="none" xmlns="http://www.w3.org/2000/svg">
<g id="icn / blockchain">
<path id="Union" fill-rule="evenodd" clip-rule="evenodd" d="M12 2.79995C11.6134 2.79995 11.3 3.11335 11.3 3.49995C11.3 3.88655 11.6134 4.19995 12 4.19995C12.3866 4.19995 12.7 3.88655 12.7 3.49995C12.7 3.11335 12.3866 2.79995 12 2.79995ZM9.70334 3.37404C9.76871 2.16234 10.7719 1.19995 12 1.19995C13.228 1.19995 14.2312 2.16234 14.2966 3.37404L20.3921 6.80268C20.6441 6.94438 20.7999 7.21093 20.7999 7.49995V14.3429C21.6758 14.6679 22.2999 15.511 22.2999 16.5C22.2999 17.7702 21.2702 18.7999 20 18.7999C19.4329 18.7999 18.9138 18.5948 18.5128 18.2546L12.3921 21.6972C12.1486 21.8342 11.8513 21.8342 11.6078 21.6972L5.48707 18.2546C5.08609 18.5948 4.56699 18.7999 3.99995 18.7999C2.7297 18.7999 1.69995 17.7702 1.69995 16.5C1.69995 15.511 2.32409 14.6679 3.19995 14.3429V7.49995C3.19995 7.21093 3.35585 6.94438 3.60775 6.80268L9.70334 3.37404ZM10.1992 4.93089L4.79995 7.96784V14.3429C5.00556 14.4192 5.1973 14.524 5.37035 14.6526L8.19995 13.0357V10.25C8.19995 9.96542 8.35108 9.7023 8.59685 9.55893L11.2 8.04045V5.657C10.8031 5.50978 10.458 5.2562 10.1992 4.93089ZM12.8 5.657V8.04045L15.403 9.55893C15.6488 9.7023 15.8 9.96542 15.8 10.25V13.0357L18.6296 14.6526C18.8026 14.524 18.9943 14.4192 19.2 14.3429V7.96784L13.8007 4.93089C13.5419 5.2562 13.1968 5.50978 12.8 5.657ZM17.7554 15.9959L15.2206 14.5474L12.403 16.191C12.154 16.3363 11.8459 16.3363 11.5969 16.191L8.77933 14.5474L6.24454 15.9959C6.28082 16.1581 6.29995 16.3268 6.29995 16.5C6.29995 16.6225 6.29036 16.7429 6.27189 16.8603L12 20.0821L17.728 16.8603C17.7095 16.7429 17.7 16.6225 17.7 16.5C17.7 16.3268 17.7191 16.1581 17.7554 15.9959ZM9.79995 13.2905L12 14.5738L14.2 13.2905V10.7094L12 9.42611L9.79995 10.7094V13.2905ZM3.99995 15.8C3.61335 15.8 3.29995 16.1134 3.29995 16.5C3.29995 16.8866 3.61335 17.2 3.99995 17.2C4.38655 17.2 4.69995 16.8866 4.69995 16.5C4.69995 16.1134 4.38655 15.8 3.99995 15.8ZM20 15.8C19.6134 15.8 19.2999 16.1134 19.2999 16.5C19.2999 16.8866 19.6134 17.2 20 17.2C20.3865 17.2 20.7 16.8866 20.7 16.5C20.7 16.1134 20.3865 15.8 20 15.8Z" fill="white"/>
</g>
</svg>
