<svg width="24" height="24" viewBox="0 0 24 24" fill="none" xmlns="http://www.w3.org/2000/svg">
<path fill-rule="evenodd" clip-rule="evenodd" d="M2.83663 3.00242C5.51 1.99919 8.49 1.99919 11.1634 3.00242L12 3.31638L12.8366 3.00242C15.51 1.99919 18.49 1.99919 21.1634 3.00242C22.0983 3.35326 22.75 4.22207 22.75 5.22907V19.0797C22.75 20.5946 21.1677 21.4932 19.8316 20.9918C18.0146 20.31 15.9854 20.31 14.1684 20.9918L12.2772 21.7015C12.1896 21.7344 12.095 21.7493 12 21.747C11.905 21.7493 11.8104 21.7344 11.7228 21.7015L9.83164 20.9918C8.01463 20.31 5.98537 20.31 4.16836 20.9918C2.83232 21.4932 1.25 20.5946 1.25 19.0797V5.22907C1.25 4.22207 1.90173 3.35326 2.83663 3.00242ZM12.75 19.9219L13.6413 19.5875C15.7981 18.7781 18.2019 18.7781 20.3587 19.5875C20.8474 19.7709 21.25 19.4086 21.25 19.0797V5.22907C21.25 4.89331 21.0303 4.55464 20.6364 4.40679C18.3028 3.53107 15.6972 3.53107 13.3636 4.40679L12.75 4.63707V19.9219ZM11.25 4.63707L10.6364 4.40679C8.30276 3.53107 5.69724 3.53107 3.36365 4.40679C2.96965 4.55464 2.75 4.89331 2.75 5.22907V19.0797C2.75 19.4086 3.15262 19.7709 3.64134 19.5875C5.79813 18.7781 8.20187 18.7781 10.3587 19.5875L11.25 19.9219V4.63707Z" fill="white"/>
</svg>
