<svg width="48" height="48" viewBox="0 0 48 48" fill="none" xmlns="http://www.w3.org/2000/svg">
<path fill-rule="evenodd" clip-rule="evenodd" d="M26.5 8.00003C26.5 6.13557 28.0638 4.34968 30.2068 4.65793C31.4833 4.84154 32.7348 5.18416 33.9316 5.6799C35.8121 6.45884 37.5209 7.60057 38.9602 9.03988C40.3995 10.4792 41.5412 12.1879 42.3201 14.0684C42.8159 15.2653 43.1585 16.5167 43.3421 17.7933C43.6504 19.9363 41.8645 21.5 40 21.5L30 21.5C28.067 21.5 26.5 19.933 26.5 18V8.00003ZM29.6235 7.68209C29.5595 7.74331 29.5 7.8546 29.5 8.00003V18C29.5 18.2762 29.7239 18.5 30 18.5L40 18.5C40.1454 18.5 40.2567 18.4406 40.3179 18.3766C40.347 18.3462 40.3612 18.3189 40.3678 18.2993C40.3736 18.2823 40.3782 18.2586 40.3727 18.2204C40.2246 17.1909 39.9483 16.1817 39.5485 15.2165C38.9203 13.6999 37.9996 12.3219 36.8388 11.1612C35.6781 10.0005 34.3001 9.07972 32.7836 8.45154C31.8184 8.05175 30.8091 7.77544 29.7797 7.62737C29.7414 7.62187 29.7178 7.62649 29.7007 7.63224C29.6811 7.63887 29.6539 7.65301 29.6235 7.68209ZM20.3737 11.6776C20.3146 11.6208 20.2588 11.6048 20.1922 11.6132C17.9649 11.893 15.8244 12.6875 13.9442 13.9437C11.5597 15.537 9.70122 17.8016 8.60375 20.4511C7.50628 23.1006 7.21914 26.0161 7.77862 28.8288C8.33811 31.6416 9.7191 34.2252 11.747 36.2531C13.7748 38.2809 16.3585 39.6619 19.1712 40.2214C21.9839 40.7809 24.8994 40.4938 27.5489 39.3963C30.1984 38.2988 32.463 36.4403 34.0563 34.0558C35.3126 32.1757 36.107 30.0351 36.3869 27.8079C36.3953 27.7413 36.3793 27.6855 36.3224 27.6263C36.2575 27.5589 36.1447 27.5 36 27.5H25C22.5147 27.5 20.5 25.4853 20.5 23V12C20.5 11.8553 20.4412 11.7425 20.3737 11.6776ZM19.8181 8.63657C21.9364 8.37039 23.5 10.1255 23.5 12V23C23.5 23.8285 24.1716 24.5 25 24.5H36C37.8745 24.5 39.6297 26.0636 39.3635 28.1819C39.0257 30.8699 38.0669 33.4534 36.5507 35.7225C34.6278 38.6004 31.8947 40.8434 28.697 42.1679C25.4993 43.4925 21.9806 43.839 18.5859 43.1638C15.1913 42.4885 12.0731 40.8218 9.62564 38.3744C7.17822 35.927 5.51151 32.8088 4.83627 29.4141C4.16102 26.0194 4.50758 22.5008 5.83212 19.3031C7.15665 16.1054 9.39967 13.3722 12.2775 11.4493C14.5467 9.93312 17.1301 8.97434 19.8181 8.63657Z" fill="#666666"/>
</svg>
