<svg width="24" height="24" viewBox="0 0 24 24" fill="none" xmlns="http://www.w3.org/2000/svg">
<path fill-rule="evenodd" clip-rule="evenodd" d="M15.7444 3.5908C13.9322 2.78335 11.9076 2.58332 9.97245 3.02054C8.03732 3.45775 6.29536 4.5088 5.00637 6.01691C3.71738 7.52502 2.95043 9.4094 2.8199 11.389C2.68936 13.3686 3.20224 15.3374 4.28204 17.0017C5.36183 18.666 6.9507 19.9367 8.81167 20.6242C10.6726 21.3118 12.706 21.3793 14.6085 20.8168C16.511 20.2543 18.1807 19.0919 19.3685 17.5029C20.5564 15.9139 21.1988 13.9835 21.2 11.9996V11.0801C21.2 10.6382 21.5581 10.2801 22 10.2801C22.4418 10.2801 22.8 10.6382 22.8 11.0801V12.0001C22.7986 14.329 22.0445 16.5956 20.65 18.4609C19.2556 20.3262 17.2955 21.6908 15.0621 22.3511C12.8288 23.0115 10.4418 22.9322 8.25718 22.1251C6.07257 21.318 4.20738 19.8263 2.93979 17.8726C1.6722 15.9188 1.07013 13.6076 1.22336 11.2837C1.3766 8.95985 2.27693 6.74775 3.79009 4.97736C5.30325 3.20696 7.34816 1.97313 9.61984 1.45988C11.8915 0.94662 14.2682 1.18144 16.3956 2.12932C16.7991 2.30914 16.9805 2.78208 16.8007 3.18566C16.6209 3.58924 16.1479 3.77063 15.7444 3.5908ZM22.5654 3.43409C22.8779 3.74636 22.8782 4.25289 22.5659 4.56546L12.5659 14.5755C12.4159 14.7256 12.2124 14.81 12.0002 14.8101C11.7879 14.8101 11.5843 14.7258 11.4343 14.5757L8.43427 11.5757C8.12185 11.2633 8.12185 10.7568 8.43427 10.4444C8.74669 10.132 9.25322 10.132 9.56564 10.4444L11.9997 12.8784L21.434 3.43466C21.7463 3.12208 22.2528 3.12183 22.5654 3.43409Z" fill="white"/>
</svg>
