<svg width="32" height="32" viewBox="0 0 32 32" fill="none" xmlns="http://www.w3.org/2000/svg">
<path fill-rule="evenodd" clip-rule="evenodd" d="M20 5.20078C19.3373 5.20078 18.8 4.66352 18.8 4.00078C18.8 3.33804 19.3373 2.80078 20 2.80078H28C28.6627 2.80078 29.2 3.33804 29.2 4.00078V12.0008C29.2 12.6635 28.6627 13.2008 28 13.2008C27.3373 13.2008 26.8 12.6635 26.8 12.0008V6.89784L14.1819 19.516C13.7132 19.9846 12.9534 19.9846 12.4848 19.516C12.0162 19.0473 12.0162 18.2875 12.4848 17.8189L25.1029 5.20078H20ZM6.66667 9.20078C6.27769 9.20078 5.90463 9.3553 5.62958 9.63036C5.35453 9.90541 5.2 10.2785 5.2 10.6674V25.3341C5.2 25.7231 5.35453 26.0961 5.62958 26.3712C5.90463 26.6463 6.27769 26.8008 6.66667 26.8008H21.3333C21.7223 26.8008 22.0954 26.6463 22.3704 26.3712C22.6455 26.0961 22.8 25.7231 22.8 25.3341V17.3341C22.8 16.6714 23.3373 16.1341 24 16.1341C24.6627 16.1341 25.2 16.6714 25.2 17.3341V25.3341C25.2 26.3596 24.7926 27.3431 24.0675 28.0683C23.3423 28.7934 22.3588 29.2008 21.3333 29.2008H6.66667C5.64117 29.2008 4.65766 28.7934 3.93252 28.0683C3.20738 27.3431 2.8 26.3596 2.8 25.3341V10.6674C2.8 9.64194 3.20738 8.65844 3.93252 7.9333C4.65766 7.20816 5.64117 6.80078 6.66667 6.80078H14.6667C15.3294 6.80078 15.8667 7.33804 15.8667 8.00078C15.8667 8.66352 15.3294 9.20078 14.6667 9.20078H6.66667Z" fill="#CACACA"/>
<path fill-rule="evenodd" clip-rule="evenodd" d="M20 5.20078C19.3373 5.20078 18.8 4.66352 18.8 4.00078C18.8 3.33804 19.3373 2.80078 20 2.80078H28C28.6627 2.80078 29.2 3.33804 29.2 4.00078V12.0008C29.2 12.6635 28.6627 13.2008 28 13.2008C27.3373 13.2008 26.8 12.6635 26.8 12.0008V6.89784L14.1819 19.516C13.7132 19.9846 12.9534 19.9846 12.4848 19.516C12.0162 19.0473 12.0162 18.2875 12.4848 17.8189L25.1029 5.20078H20ZM6.66667 9.20078C6.27769 9.20078 5.90463 9.3553 5.62958 9.63036C5.35453 9.90541 5.2 10.2785 5.2 10.6674V25.3341C5.2 25.7231 5.35453 26.0961 5.62958 26.3712C5.90463 26.6463 6.27769 26.8008 6.66667 26.8008H21.3333C21.7223 26.8008 22.0954 26.6463 22.3704 26.3712C22.6455 26.0961 22.8 25.7231 22.8 25.3341V17.3341C22.8 16.6714 23.3373 16.1341 24 16.1341C24.6627 16.1341 25.2 16.6714 25.2 17.3341V25.3341C25.2 26.3596 24.7926 27.3431 24.0675 28.0683C23.3423 28.7934 22.3588 29.2008 21.3333 29.2008H6.66667C5.64117 29.2008 4.65766 28.7934 3.93252 28.0683C3.20738 27.3431 2.8 26.3596 2.8 25.3341V10.6674C2.8 9.64194 3.20738 8.65844 3.93252 7.9333C4.65766 7.20816 5.64117 6.80078 6.66667 6.80078H14.6667C15.3294 6.80078 15.8667 7.33804 15.8667 8.00078C15.8667 8.66352 15.3294 9.20078 14.6667 9.20078H6.66667Z" fill="#CACACA"/>
</svg>
