<svg width="48" height="48" viewBox="0 0 48 48" fill="none" xmlns="http://www.w3.org/2000/svg">
<path fill-rule="evenodd" clip-rule="evenodd" d="M5.55993 22.5H14.5646C14.9669 16.4682 17.0639 10.6865 20.5921 5.81323C12.4818 7.32348 6.23194 14.1249 5.55993 22.5ZM24 6.29745C20.2532 10.913 18.0086 16.5685 17.5719 22.5H30.4281C29.9914 16.5685 27.7468 10.913 24 6.29745ZM30.4281 25.5C29.9914 31.4315 27.7468 37.087 24 41.7025C20.2532 37.087 18.0086 31.4315 17.5719 25.5H30.4281ZM14.5646 25.5H5.55993C6.23194 33.8751 12.4818 40.6765 20.5921 42.1868C17.0639 37.3135 14.9669 31.5318 14.5646 25.5ZM27.4079 42.1868C30.9361 37.3135 33.0331 31.5318 33.4354 25.5H42.4401C41.7681 33.8751 35.5182 40.6765 27.4079 42.1868ZM42.4401 22.5H33.4354C33.0331 16.4682 30.9361 10.6865 27.4079 5.81323C35.5182 7.32348 41.7681 14.1249 42.4401 22.5ZM2.5 24C2.5 12.1259 12.1259 2.5 24 2.5C35.8741 2.5 45.5 12.1259 45.5 24C45.5 35.8741 35.8741 45.5 24 45.5C12.1259 45.5 2.5 35.8741 2.5 24Z" fill="#666666"/>
<path fill-rule="evenodd" clip-rule="evenodd" d="M5.55993 22.5H14.5646C14.9669 16.4682 17.0639 10.6865 20.5921 5.81323C12.4818 7.32348 6.23194 14.1249 5.55993 22.5ZM24 6.29745C20.2532 10.913 18.0086 16.5685 17.5719 22.5H30.4281C29.9914 16.5685 27.7468 10.913 24 6.29745ZM30.4281 25.5C29.9914 31.4315 27.7468 37.087 24 41.7025C20.2532 37.087 18.0086 31.4315 17.5719 25.5H30.4281ZM14.5646 25.5H5.55993C6.23194 33.8751 12.4818 40.6765 20.5921 42.1868C17.0639 37.3135 14.9669 31.5318 14.5646 25.5ZM27.4079 42.1868C30.9361 37.3135 33.0331 31.5318 33.4354 25.5H42.4401C41.7681 33.8751 35.5182 40.6765 27.4079 42.1868ZM42.4401 22.5H33.4354C33.0331 16.4682 30.9361 10.6865 27.4079 5.81323C35.5182 7.32348 41.7681 14.1249 42.4401 22.5ZM2.5 24C2.5 12.1259 12.1259 2.5 24 2.5C35.8741 2.5 45.5 12.1259 45.5 24C45.5 35.8741 35.8741 45.5 24 45.5C12.1259 45.5 2.5 35.8741 2.5 24Z" fill="#666666"/>
</svg>
