<svg width="284" height="48" viewBox="0 0 284 48" fill="none" xmlns="http://www.w3.org/2000/svg">
<path d="M10.8 18C10.8 14.0236 14.0236 10.8 18 10.8H30C33.9765 10.8 37.2 14.0236 37.2 18V30C37.2 33.9765 33.9765 37.2 30 37.2H19.2V48H30C39.9411 48 48 39.9411 48 30V18C48 8.05888 39.9411 0 30 0H18C8.05888 0 0 8.05888 0 18V30C0 37.3811 4.44274 43.7246 10.8 46.5022V29.1H18.5009C19.8706 30.5762 21.8274 31.5 24 31.5C28.1421 31.5 31.5 28.1421 31.5 24C31.5 19.8579 28.1421 16.5 24 16.5C21.8274 16.5 19.8706 17.4238 18.5009 18.9L10.8 18.9V18Z" fill="url(#paint0_linear_2719_280)"/>
<path d="M163.948 30.8517C163.641 31.8478 163.155 32.7673 162.49 33.6102C161.824 34.4275 161.044 35.1427 160.148 35.7556C159.253 36.3431 158.268 36.8028 157.193 37.1349C156.118 37.4669 154.992 37.6329 153.815 37.6329C152.203 37.6329 150.693 37.352 149.286 36.7901C147.879 36.2281 146.65 35.4491 145.601 34.453C144.578 33.4569 143.772 32.2948 143.183 30.9667C142.595 29.613 142.3 28.1572 142.3 26.5992C142.3 25.0411 142.582 23.5853 143.145 22.2316C143.733 20.8524 144.527 19.6647 145.525 18.6686C146.548 17.647 147.738 16.8552 149.094 16.2933C150.476 15.7059 151.947 15.4121 153.508 15.4121C155.095 15.4121 156.553 15.7059 157.884 16.2933C159.24 16.8552 160.404 17.647 161.376 18.6686C162.349 19.6647 163.104 20.8652 163.641 22.2699C164.204 23.6492 164.485 25.1688 164.485 26.829C164.485 27.2377 164.473 27.5825 164.447 27.8634C164.422 28.1188 164.37 28.4253 164.294 28.7829H147.827C148.135 30.0855 148.8 31.1072 149.823 31.8478C150.872 32.5885 152.165 32.9589 153.7 32.9589C154.775 32.9589 155.658 32.8056 156.348 32.4991C157.039 32.1671 157.717 31.618 158.383 30.8517H163.948ZM159.457 24.3005C159.125 22.9212 158.459 21.874 157.461 21.1589C156.464 20.4437 155.171 20.0862 153.585 20.0862C152.05 20.0862 150.783 20.4437 149.785 21.1589C148.787 21.874 148.083 22.9212 147.674 24.3005H159.457Z" fill="white"/>
<path d="M130.629 15.9102H135.312V17.979C135.67 17.4682 136.003 17.0468 136.31 16.7147C136.617 16.3827 136.962 16.1273 137.346 15.9485C137.73 15.7442 138.152 15.6037 138.613 15.5271C139.099 15.4505 139.662 15.4121 140.302 15.4121V20.316C137.256 20.316 135.734 21.989 135.734 25.3349V37.1349H130.629V15.9102Z" fill="white"/>
<path d="M121.777 35.1044C120.804 36.0494 119.858 36.7134 118.937 37.0966C118.041 37.4541 116.953 37.6329 115.674 37.6329C112.987 37.6329 110.966 36.7645 109.61 35.0277C108.253 33.2909 107.575 30.7113 107.575 27.2888V15.9102H112.68V26.2927C112.68 28.668 112.987 30.3793 113.601 31.4264C114.241 32.4481 115.277 32.9589 116.71 32.9589C118.399 32.9589 119.602 32.4225 120.318 31.3498C121.035 30.2771 121.393 28.4637 121.393 25.9096V15.9102H126.498V37.1349H121.777V35.1044Z" fill="white"/>
<path d="M96.9536 20.5459H94.4587V15.9102H96.9536V8.82251H102.058V15.9102H105.129V20.5459H102.058V37.1348H96.9536V20.5459Z" fill="white"/>
<path d="M87.1801 35.1044C86.2078 36.0494 85.261 36.7134 84.3398 37.0966C83.4442 37.4541 82.3567 37.6329 81.0773 37.6329C78.3905 37.6329 76.369 36.7645 75.0129 35.0277C73.6567 33.2909 72.9786 30.7113 72.9786 27.2888V15.9102H78.0835V26.2927C78.0835 28.668 78.3905 30.3793 79.0046 31.4264C79.6444 32.4481 80.6807 32.9589 82.1136 32.9589C83.8025 32.9589 85.0051 32.4225 85.7216 31.3498C86.4381 30.2771 86.7963 28.4637 86.7963 25.9096V15.9102H91.9012V37.1349H87.1801V35.1044Z" fill="white"/>
<path d="M62.3104 20.5459H60.468V16.2933H62.3104C62.8221 11.3128 65.1635 8.82251 69.3344 8.82251C69.5135 8.82251 69.6926 8.82251 69.8717 8.82251C70.0508 8.82251 70.2939 8.84805 70.601 8.89913V13.7264H70.0636C69.0913 13.7264 68.4132 13.918 68.0294 14.3011C67.6455 14.6587 67.4408 15.3227 67.4152 16.2933H70.2939V20.5459H67.4152V37.1348H62.3104V20.5459Z" fill="white"/>
<path d="M258.093 20.5459H255.598V15.9102H258.093V8.82251H263.197V15.9102H266.268V20.5459H263.197V37.1348H258.093V20.5459Z" fill="white"/>
<path d="M234.232 15.9102H238.953V17.9407C239.9 17.0212 240.821 16.3699 241.716 15.9868C242.638 15.6037 243.712 15.4121 244.941 15.4121C247.781 15.4121 249.854 16.2422 251.159 17.9024C252.464 19.5626 253.116 22.1805 253.116 25.7563V37.1349H248.011V26.7524C248.011 24.3771 247.691 22.6786 247.052 21.6569C246.437 20.6098 245.401 20.0862 243.943 20.0862C242.331 20.0862 241.154 20.6481 240.411 21.7719C239.695 22.8702 239.337 24.658 239.337 27.1355V37.1349H234.232V15.9102Z" fill="white"/>
<path d="M224.974 15.9102H230.078V37.1348H224.974V15.9102ZM224.974 8.82251H230.078V13.6115H224.974V8.82251Z" fill="white"/>
<path d="M199.237 26.5608C199.237 25.0028 199.531 23.547 200.12 22.1933C200.708 20.8396 201.514 19.6647 202.538 18.6686C203.561 17.647 204.764 16.8552 206.146 16.2933C207.553 15.7059 209.05 15.4121 210.636 15.4121C212.172 15.4121 213.618 15.7059 214.974 16.2933C216.355 16.8808 217.545 17.6853 218.543 18.707C219.567 19.7031 220.373 20.8779 220.961 22.2316C221.55 23.5853 221.844 25.0284 221.844 26.5608C221.844 28.0933 221.55 29.5364 220.961 30.8901C220.373 32.2182 219.567 33.3803 218.543 34.3764C217.52 35.3725 216.317 36.1643 214.935 36.7517C213.579 37.3392 212.121 37.6329 210.56 37.6329C208.999 37.6329 207.527 37.3392 206.146 36.7517C204.764 36.1643 203.561 35.3725 202.538 34.3764C201.514 33.3803 200.708 32.2182 200.12 30.8901C199.531 29.5364 199.237 28.0933 199.237 26.5608ZM210.521 32.9589C211.366 32.9589 212.159 32.7929 212.901 32.4608C213.669 32.1288 214.334 31.6691 214.897 31.0816C215.46 30.4942 215.895 29.8173 216.202 29.0511C216.535 28.2593 216.701 27.4292 216.701 26.5608C216.701 25.6414 216.535 24.7985 216.202 24.0323C215.895 23.2405 215.46 22.5509 214.897 21.9634C214.334 21.376 213.669 20.9163 212.901 20.5842C212.133 20.2522 211.315 20.0862 210.445 20.0862C209.626 20.0862 208.845 20.265 208.103 20.6225C207.361 20.9546 206.709 21.4143 206.146 22.0018C205.608 22.5637 205.173 23.2405 204.841 24.0323C204.534 24.7985 204.38 25.6286 204.38 26.5225C204.38 27.4165 204.534 28.2593 204.841 29.0511C205.173 29.8173 205.621 30.4942 206.184 31.0816C206.747 31.6691 207.4 32.1288 208.142 32.4608C208.884 32.7929 209.677 32.9589 210.521 32.9589Z" fill="white"/>
<path d="M174.821 15.9102H179.504V18.4005C180.323 17.4299 181.321 16.6892 182.498 16.1784C183.701 15.6676 185.031 15.4121 186.49 15.4121C188.025 15.4121 189.432 15.6931 190.712 16.255C192.017 16.7914 193.143 17.5576 194.089 18.5537C195.036 19.5243 195.765 20.6864 196.277 22.0401C196.815 23.3682 197.083 24.8368 197.083 26.4459C197.083 28.055 196.815 29.5491 196.277 30.9284C195.74 32.282 194.998 33.4569 194.051 34.453C193.13 35.4491 192.017 36.2281 190.712 36.7901C189.407 37.352 187.987 37.6329 186.451 37.6329C185.146 37.6329 183.982 37.4414 182.959 37.0582C181.935 36.6496 180.924 36.011 179.926 35.1427V44.2225H174.821V15.9102ZM185.876 32.9589C186.72 32.9589 187.513 32.7929 188.255 32.4608C188.997 32.1288 189.637 31.6818 190.174 31.1199C190.737 30.5325 191.172 29.8556 191.479 29.0894C191.786 28.2976 191.94 27.4548 191.94 26.5608C191.94 25.6158 191.786 24.7474 191.479 23.9556C191.172 23.1639 190.737 22.487 190.174 21.9251C189.611 21.3377 188.946 20.8907 188.179 20.5842C187.436 20.2522 186.618 20.0862 185.722 20.0862C184.852 20.0862 184.046 20.2522 183.304 20.5842C182.562 20.9163 181.909 21.376 181.346 21.9634C180.809 22.5253 180.387 23.215 180.08 24.0323C179.773 24.824 179.619 25.6797 179.619 26.5992C179.619 27.4931 179.773 28.3359 180.08 29.1277C180.412 29.894 180.86 30.5708 181.423 31.1582C181.986 31.7201 182.651 32.1671 183.419 32.4991C184.187 32.8056 185.006 32.9589 185.876 32.9589Z" fill="white"/>
<defs>
<linearGradient id="paint0_linear_2719_280" x1="0" y1="48" x2="48" y2="0" gradientUnits="userSpaceOnUse">
<stop stop-color="#4667FC"/>
<stop offset="1" stop-color="#B332DC"/>
</linearGradient>
</defs>
</svg>
