<svg width="48" height="48" viewBox="0 0 48 48" fill="none" xmlns="http://www.w3.org/2000/svg">
<path fill-rule="evenodd" clip-rule="evenodd" d="M23.896 2.5H24.104C25.902 2.5 27.4 2.5 28.588 2.66C29.844 2.828 30.978 3.2 31.888 4.11C32.8 5.022 33.172 6.156 33.34 7.41C33.46 8.29 33.49 9.338 33.498 10.55C34.794 10.592 35.95 10.67 36.978 10.806C39.322 11.122 41.22 11.786 42.718 13.282C44.214 14.78 44.878 16.678 45.194 19.022C45.5 21.302 45.5 24.212 45.5 27.888V28.112C45.5 31.788 45.5 34.7 45.194 36.978C44.878 39.322 44.214 41.22 42.718 42.718C41.22 44.214 39.322 44.878 36.978 45.194C34.698 45.5 31.788 45.5 28.112 45.5H19.888C16.212 45.5 13.3 45.5 11.022 45.194C8.678 44.878 6.78 44.214 5.282 42.718C3.786 41.22 3.122 39.322 2.806 36.978C2.5 34.698 2.5 31.788 2.5 28.112V27.888C2.5 24.212 2.5 21.3 2.806 19.022C3.122 16.678 3.786 14.78 5.282 13.282C6.78 11.786 8.678 11.122 11.022 10.806C12.1772 10.6645 13.3385 10.579 14.502 10.55C14.51 9.338 14.542 8.29 14.66 7.41C14.828 6.156 15.2 5.022 16.11 4.11C17.022 3.2 18.156 2.83 19.41 2.66C20.6 2.5 22.1 2.5 23.896 2.5ZM17.504 10.504C18.26 10.5 19.0547 10.4987 19.888 10.5H28.112C28.9453 10.5 29.74 10.5013 30.496 10.504C30.488 9.364 30.46 8.504 30.368 7.81C30.242 6.888 30.028 6.492 29.768 6.232C29.508 5.972 29.112 5.758 28.188 5.632C27.224 5.504 25.928 5.5 24 5.5C22.072 5.5 20.776 5.504 19.81 5.634C18.888 5.758 18.492 5.972 18.232 6.234C17.972 6.496 17.758 6.888 17.632 7.81C17.54 8.502 17.512 9.362 17.504 10.504ZM11.42 13.78C9.408 14.05 8.248 14.558 7.4 15.404C6.556 16.25 6.048 17.41 5.778 19.422C5.502 21.476 5.498 24.186 5.498 28C5.498 31.814 5.502 34.524 5.778 36.58C6.048 38.59 6.556 39.75 7.402 40.596C8.248 41.442 9.408 41.95 11.42 42.22C13.476 42.496 16.184 42.5 19.998 42.5H27.998C31.812 42.5 34.522 42.496 36.578 42.22C38.588 41.95 39.748 41.442 40.594 40.596C41.44 39.75 41.948 38.59 42.218 36.578C42.494 34.524 42.498 31.814 42.498 28C42.498 24.186 42.494 21.478 42.218 19.42C41.948 17.41 41.44 16.25 40.594 15.404C39.748 14.558 38.588 14.05 36.576 13.78C34.522 13.504 31.812 13.5 27.998 13.5H19.998C16.184 13.5 13.478 13.504 11.42 13.78ZM24 18.5C24.3978 18.5 24.7794 18.658 25.0607 18.9393C25.342 19.2206 25.5 19.6022 25.5 20V20.02C27.678 20.568 29.5 22.286 29.5 24.666C29.5 25.0638 29.342 25.4454 29.0607 25.7267C28.7794 26.008 28.3978 26.166 28 26.166C27.6022 26.166 27.2206 26.008 26.9393 25.7267C26.658 25.4454 26.5 25.0638 26.5 24.666C26.5 23.898 25.648 22.834 24 22.834C22.352 22.834 21.5 23.898 21.5 24.666C21.5 25.434 22.352 26.5 24 26.5C26.77 26.5 29.5 28.42 29.5 31.334C29.5 33.714 27.678 35.43 25.5 35.98V36C25.5 36.3978 25.342 36.7794 25.0607 37.0607C24.7794 37.342 24.3978 37.5 24 37.5C23.6022 37.5 23.2206 37.342 22.9393 37.0607C22.658 36.7794 22.5 36.3978 22.5 36V35.98C20.322 35.432 18.5 33.714 18.5 31.334C18.5 30.9362 18.658 30.5546 18.9393 30.2733C19.2206 29.992 19.6022 29.834 20 29.834C20.3978 29.834 20.7794 29.992 21.0607 30.2733C21.342 30.5546 21.5 30.9362 21.5 31.334C21.5 32.102 22.352 33.166 24 33.166C25.648 33.166 26.5 32.102 26.5 31.334C26.5 30.566 25.648 29.5 24 29.5C21.23 29.5 18.5 27.58 18.5 24.666C18.5 22.286 20.322 20.568 22.5 20.02V20C22.5 19.6022 22.658 19.2206 22.9393 18.9393C23.2206 18.658 23.6022 18.5 24 18.5Z" fill="#666666"/>
</svg>
