<svg width="48" height="48" viewBox="0 0 48 48" fill="none" xmlns="http://www.w3.org/2000/svg">
<path fill-rule="evenodd" clip-rule="evenodd" d="M24.2428 5.85003C24.0918 5.76614 23.9082 5.76614 23.7572 5.85003L9.75718 13.6278C9.59845 13.716 9.5 13.8833 9.5 14.0649V23.3422C9.5 30.0608 13.1425 36.2513 19.0156 39.5141L23.7572 42.1484C23.9082 42.2323 24.0918 42.2323 24.2428 42.1484L28.9844 39.5141C34.8575 36.2513 38.5 30.0608 38.5 23.3422V14.0649C38.5 13.8833 38.4016 13.716 38.2428 13.6278L24.2428 5.85003ZM22.3003 3.22756C23.3573 2.64029 24.6427 2.64029 25.6998 3.22756L39.6998 11.0053C40.8109 11.6226 41.5 12.7938 41.5 14.0649V23.3422C41.5 31.1503 37.2668 38.3447 30.4413 42.1366L25.6998 44.7708C24.6427 45.3581 23.3573 45.3581 22.3003 44.7708L17.5587 42.1366C10.7332 38.3447 6.5 31.1503 6.5 23.3422V14.0649C6.5 12.7938 7.18912 11.6226 8.30025 11.0053L22.3003 3.22756ZM32.0607 18.9385C32.6464 19.5243 32.6464 20.4741 32.0607 21.0599L24.0607 29.0598C23.4749 29.6456 22.5251 29.6456 21.9393 29.0598L17.9393 25.0599C17.3536 24.4741 17.3536 23.5243 17.9393 22.9385C18.5251 22.3527 19.4749 22.3527 20.0607 22.9385L23 25.8779L29.9393 18.9385C30.5251 18.3527 31.4749 18.3527 32.0607 18.9385Z" fill="#666666"/>
<path fill-rule="evenodd" clip-rule="evenodd" d="M24.2428 5.85003C24.0918 5.76614 23.9082 5.76614 23.7572 5.85003L9.75718 13.6278C9.59845 13.716 9.5 13.8833 9.5 14.0649V23.3422C9.5 30.0608 13.1425 36.2513 19.0156 39.5141L23.7572 42.1484C23.9082 42.2323 24.0918 42.2323 24.2428 42.1484L28.9844 39.5141C34.8575 36.2513 38.5 30.0608 38.5 23.3422V14.0649C38.5 13.8833 38.4016 13.716 38.2428 13.6278L24.2428 5.85003ZM22.3003 3.22756C23.3573 2.64029 24.6427 2.64029 25.6998 3.22756L39.6998 11.0053C40.8109 11.6226 41.5 12.7938 41.5 14.0649V23.3422C41.5 31.1503 37.2668 38.3447 30.4413 42.1366L25.6998 44.7708C24.6427 45.3581 23.3573 45.3581 22.3003 44.7708L17.5587 42.1366C10.7332 38.3447 6.5 31.1503 6.5 23.3422V14.0649C6.5 12.7938 7.18912 11.6226 8.30025 11.0053L22.3003 3.22756ZM32.0607 18.9385C32.6464 19.5243 32.6464 20.4741 32.0607 21.0599L24.0607 29.0598C23.4749 29.6456 22.5251 29.6456 21.9393 29.0598L17.9393 25.0599C17.3536 24.4741 17.3536 23.5243 17.9393 22.9385C18.5251 22.3527 19.4749 22.3527 20.0607 22.9385L23 25.8779L29.9393 18.9385C30.5251 18.3527 31.4749 18.3527 32.0607 18.9385Z" fill="#666666"/>
</svg>
