<svg width="24" height="24" viewBox="0 0 24 24" fill="none" xmlns="http://www.w3.org/2000/svg">
<g clip-path="url(#clip0_2181_235)">
<path fill-rule="evenodd" clip-rule="evenodd" d="M8.99995 0.199951C9.44178 0.199951 9.79995 0.558123 9.79995 0.999951V3.19995H14.2V0.999951C14.2 0.558123 14.5581 0.199951 15 0.199951C15.4418 0.199951 15.8 0.558123 15.8 0.999951V3.19995H18C19.5463 3.19995 20.7999 4.45355 20.7999 5.99995V8.19995H23C23.4418 8.19995 23.7999 8.55812 23.7999 8.99995C23.7999 9.44178 23.4418 9.79995 23 9.79995H20.7999V13.2H23C23.4418 13.2 23.7999 13.5581 23.7999 14C23.7999 14.4418 23.4418 14.8 23 14.8H20.7999V18C20.7999 19.5463 19.5463 20.7999 18 20.7999H15.8V23C15.8 23.4418 15.4418 23.7999 15 23.7999C14.5581 23.7999 14.2 23.4418 14.2 23V20.7999H9.79995V23C9.79995 23.4418 9.44178 23.7999 8.99995 23.7999C8.55812 23.7999 8.19995 23.4418 8.19995 23V20.7999H5.99995C4.45355 20.7999 3.19995 19.5463 3.19995 18V14.8H0.999951C0.558123 14.8 0.199951 14.4418 0.199951 14C0.199951 13.5581 0.558123 13.2 0.999951 13.2H3.19995V9.79995H0.999951C0.558123 9.79995 0.199951 9.44178 0.199951 8.99995C0.199951 8.55812 0.558123 8.19995 0.999951 8.19995H3.19995V5.99995C3.19995 4.45355 4.45355 3.19995 5.99995 3.19995H8.19995V0.999951C8.19995 0.558123 8.55812 0.199951 8.99995 0.199951ZM5.99995 4.79995C5.33721 4.79995 4.79995 5.33721 4.79995 5.99995V18C4.79995 18.6627 5.33721 19.2 5.99995 19.2H18C18.6627 19.2 19.2 18.6627 19.2 18V5.99995C19.2 5.33721 18.6627 4.79995 18 4.79995H5.99995ZM8.19995 8.99995C8.19995 8.55812 8.55812 8.19995 8.99995 8.19995H15C15.4418 8.19995 15.8 8.55812 15.8 8.99995V15C15.8 15.4418 15.4418 15.8 15 15.8H8.99995C8.55812 15.8 8.19995 15.4418 8.19995 15V8.99995ZM9.79995 9.79995V14.2H14.2V9.79995H9.79995Z" fill="white"/>
</g>
<defs>
<clipPath id="clip0_2181_235">
<rect width="24" height="24" fill="white"/>
</clipPath>
</defs>
</svg>
