<svg width="25" height="25" viewBox="0 0 25 25" fill="none" xmlns="http://www.w3.org/2000/svg">
<path d="M12.4465 24.4233C14.0914 24.4233 15.6365 24.1138 17.082 23.4948C18.5774 22.8757 19.8733 22.0186 20.9699 20.9233C22.0664 19.8281 22.9138 18.5662 23.5119 17.1376C24.1599 15.6614 24.4839 14.1138 24.4839 12.4948C24.4839 10.7805 24.1599 9.20905 23.5119 7.78048C22.9138 6.30429 22.0664 5.01858 20.9699 3.92334C19.8733 2.8281 18.5774 1.97096 17.082 1.35191C15.5867 0.732864 13.9917 0.42334 12.297 0.42334C10.702 0.42334 9.18172 0.756672 7.73624 1.42334C6.29076 2.04239 5.01973 2.89953 3.92316 3.99477C2.87643 5.04239 2.02909 6.30429 1.38112 7.78048C0.782984 9.20905 0.483887 10.7567 0.483887 12.4233C0.483887 14.09 0.782984 15.6614 1.38112 17.1376C2.02909 18.5662 2.90135 19.8281 3.99793 20.9233C5.0945 22.0186 6.36554 22.8757 7.81103 23.4948C9.25651 24.1138 10.8016 24.4233 12.4465 24.4233Z" fill="#4752EB"/>
</svg>
